<svg xmlns="http://www.w3.org/2000/svg" xmlns:xlink="http://www.w3.org/1999/xlink" contentStyleType="text/css" height="395px" preserveAspectRatio="none" style="width:600px;height:395px;background:#FFFFFF;" version="1.1" viewBox="0 0 600 395" width="600px" zoomAndPan="magnify"><title>Graph model &#8212; MapAI (owned by mapai-core)</title><defs/><g><text fill="#000000" font-family="sans-serif" font-size="14" font-weight="bold" lengthAdjust="spacing" textLength="306.9199" x="10.04" y="24.5332">Graph model &#8212; MapAI (owned by mapai-core)</text><!--class File--><g id="elem_File"><rect codeLine="4" fill="#F1F1F1" height="100.8281" id="File" rx="2.5" ry="2.5" style="stroke:#181818;stroke-width:0.5;" width="155.2471" x="89.5" y="50.6094"/><ellipse cx="151.5942" cy="66.6094" fill="#ADD1B2" rx="11" ry="11" style="stroke:#181818;stroke-width:1.0;"/><path d="M154.3599,62.4844 Q154.5161,62.2656 154.7036,62.1563 Q154.8911,62.0469 155.1099,62.0469 Q155.4849,62.0469 155.7192,62.3125 Q155.9536,62.5625 155.9536,63.1719 L155.9536,64.625 Q155.9536,65.2344 155.7192,65.5 Q155.4849,65.7656 155.1099,65.7656 Q154.7661,65.7656 154.563,65.5625 Q154.3599,65.375 154.2505,64.8594 Q154.2036,64.5 154.0161,64.3125 Q153.688,63.9375 153.0786,63.7188 Q152.4692,63.5 151.8442,63.5 Q151.0786,63.5 150.438,63.8281 Q149.813,64.1563 149.313,64.9063 Q148.8286,65.6563 148.8286,66.6875 L148.8286,67.7813 Q148.8286,69.0156 149.7192,69.8438 Q150.6099,70.6563 152.2036,70.6563 Q153.1411,70.6563 153.7974,70.4063 Q154.188,70.25 154.6099,69.8125 Q154.8755,69.5469 155.0161,69.4688 Q155.1724,69.3906 155.3755,69.3906 Q155.7036,69.3906 155.9536,69.6563 Q156.2192,69.9063 156.2192,70.25 Q156.2192,70.5938 155.8755,71 Q155.3755,71.5781 154.5786,71.9063 Q153.5005,72.3594 152.2036,72.3594 Q150.688,72.3594 149.4849,71.7344 Q148.5005,71.2344 147.813,70.1719 Q147.1255,69.0938 147.1255,67.8125 L147.1255,66.6563 Q147.1255,65.3281 147.7349,64.1875 Q148.3599,63.0313 149.4536,62.4219 Q150.5474,61.7969 151.7817,61.7969 Q152.5161,61.7969 153.1567,61.9688 Q153.813,62.125 154.3599,62.4844 Z " fill="#000000"/><text fill="#000000" font-family="sans-serif" font-size="14" lengthAdjust="spacing" textLength="22.5586" x="172.0942" y="72.3379">File</text><line style="stroke:#181818;stroke-width:0.5;" x1="90.5" x2="243.7471" y1="82.6094" y2="82.6094"/><text fill="#000000" font-family="sans-serif" font-size="14" lengthAdjust="spacing" textLength="116.7305" x="95.5" y="101.1426">path : repo-relative</text><text fill="#000000" font-family="sans-serif" font-size="14" lengthAdjust="spacing" textLength="143.2471" x="95.5" y="118.752">language : LanguageId</text><text fill="#000000" font-family="sans-serif" font-size="14" lengthAdjust="spacing" textLength="84.0684" x="95.5" y="136.3613">content_hash</text><line style="stroke:#181818;stroke-width:0.5;" x1="90.5" x2="243.7471" y1="143.4375" y2="143.4375"/></g><!--class Symbol--><g id="elem_Symbol"><rect codeLine="10" fill="#F1F1F1" height="100.8281" id="Symbol" rx="2.5" ry="2.5" style="stroke:#181818;stroke-width:0.5;" width="222.8955" x="55.5" y="207.6094"/><ellipse cx="139.3564" cy="223.6094" fill="#ADD1B2" rx="11" ry="11" style="stroke:#181818;stroke-width:1.0;"/><path d="M142.1221,219.4844 Q142.2783,219.2656 142.4658,219.1563 Q142.6533,219.0469 142.8721,219.0469 Q143.2471,219.0469 143.4814,219.3125 Q143.7158,219.5625 143.7158,220.1719 L143.7158,221.625 Q143.7158,222.2344 143.4814,222.5 Q143.2471,222.7656 142.8721,222.7656 Q142.5283,222.7656 142.3252,222.5625 Q142.1221,222.375 142.0127,221.8594 Q141.9658,221.5 141.7783,221.3125 Q141.4502,220.9375 140.8408,220.7188 Q140.2314,220.5 139.6064,220.5 Q138.8408,220.5 138.2002,220.8281 Q137.5752,221.1563 137.0752,221.9063 Q136.5908,222.6563 136.5908,223.6875 L136.5908,224.7813 Q136.5908,226.0156 137.4814,226.8438 Q138.3721,227.6563 139.9658,227.6563 Q140.9033,227.6563 141.5596,227.4063 Q141.9502,227.25 142.3721,226.8125 Q142.6377,226.5469 142.7783,226.4688 Q142.9346,226.3906 143.1377,226.3906 Q143.4658,226.3906 143.7158,226.6563 Q143.9814,226.9063 143.9814,227.25 Q143.9814,227.5938 143.6377,228 Q143.1377,228.5781 142.3408,228.9063 Q141.2627,229.3594 139.9658,229.3594 Q138.4502,229.3594 137.2471,228.7344 Q136.2627,228.2344 135.5752,227.1719 Q134.8877,226.0938 134.8877,224.8125 L134.8877,223.6563 Q134.8877,222.3281 135.4971,221.1875 Q136.1221,220.0313 137.2158,219.4219 Q138.3096,218.7969 139.5439,218.7969 Q140.2783,218.7969 140.9189,218.9688 Q141.5752,219.125 142.1221,219.4844 Z " fill="#000000"/><text fill="#000000" font-family="sans-serif" font-size="14" lengthAdjust="spacing" textLength="46.6826" x="159.8564" y="229.3379">Symbol</text><line style="stroke:#181818;stroke-width:0.5;" x1="56.5" x2="277.3955" y1="239.6094" y2="239.6094"/><text fill="#000000" font-family="sans-serif" font-size="14" lengthAdjust="spacing" textLength="35.0205" x="61.5" y="258.1426">name</text><text fill="#000000" font-family="sans-serif" font-size="14" lengthAdjust="spacing" textLength="210.8955" x="61.5" y="275.752">kind : function | class | method | ...</text><text fill="#000000" font-family="sans-serif" font-size="14" lengthAdjust="spacing" textLength="123.7441" x="61.5" y="293.3613">span : source range</text><line style="stroke:#181818;stroke-width:0.5;" x1="56.5" x2="277.3955" y1="300.4375" y2="300.4375"/></g><g id="elem_GMN8"><path d="M6,345.6094 L6,388.3125 A0,0 0 0 0 6,388.3125 L328.355,388.3125 A0,0 0 0 0 328.355,388.3125 L328.355,355.6094 L318.355,345.6094 L171,345.6094 L167,308.8504 L163,345.6094 L6,345.6094 A0,0 0 0 0 6,345.6094 " fill="#FEFFDD" style="stroke:#181818;stroke-width:0.5;"/><path d="M318.355,345.6094 L318.355,355.6094 L328.355,355.6094 L318.355,345.6094 " fill="#FEFFDD" style="stroke:#181818;stroke-width:0.5;"/><text fill="#000000" font-family="sans-serif" font-size="13" lengthAdjust="spacing" textLength="301.355" x="12" y="364.1045">Every language emits the SAME node/edge shapes.</text><text fill="#000000" font-family="sans-serif" font-size="13" lengthAdjust="spacing" textLength="273.1587" x="12" y="380.4561">Nothing downstream special-cases a language.</text></g><polygon fill="#181818" points="167,207.5719,171,198.5719,167,202.5719,163,198.5719,167,207.5719" style="stroke:#181818;stroke-width:1.0;"/><path d="M167,152.0055 C167,169.7938 167,183.8139 167,201.5719 " fill="none" style="stroke:#181818;stroke-width:1.0;"/><text fill="#000000" font-family="sans-serif" font-size="13" lengthAdjust="spacing" textLength="44.0781" x="169" y="185.1045">Defines</text><text fill="#000000" font-family="sans-serif" font-size="13" lengthAdjust="spacing" textLength="31.7891" x="135" y="204.067">many</text><text fill="#000000" font-family="sans-serif" font-size="13" lengthAdjust="spacing" textLength="7.23" x="159" y="166.5007">1</text><polygon fill="#181818" points="244.5655,107.6346,253.9188,110.7194,249.5407,107.1371,253.1229,102.7591,244.5655,107.6346" style="stroke:#181818;stroke-width:1.0;"/><path d="M244.5655,94.5842 C255.315,95.6589 262.5,97.834 262.5,101.1094 C262.5,104.3848 261.2852,105.9629 250.5357,107.0377 " fill="none" style="stroke:#181818;stroke-width:1.0;"/><text fill="#000000" font-family="sans-serif" font-size="13" lengthAdjust="spacing" textLength="43.3418" x="323.7649" y="98.6045">Imports</text><text fill="#000000" font-family="sans-serif" font-size="13" lengthAdjust="spacing" textLength="161.8716" x="264.5" y="114.9561">(unresolved targets flagged)</text><polygon fill="#181818" points="278.8937,268.4189,288.491,270.6308,283.8021,267.4662,286.9667,262.7774,278.8937,268.4189" style="stroke:#181818;stroke-width:1.0;"/><path d="M278.8937,247.7998 C289.6709,249.8916 296.5,253.3281 296.5,258.1094 C296.5,262.8906 295.561,265.1839 284.7838,267.2757 " fill="none" style="stroke:#181818;stroke-width:1.0;"/><text fill="#000000" font-family="sans-serif" font-size="13" lengthAdjust="spacing" textLength="28.8945" x="298.5" y="263.6045">Calls</text><polygon fill="#181818" points="244.5161,113.6991,253.2423,118.2657,249.5059,114.0184,253.7532,110.282,244.5161,113.6991" style="stroke:#181818;stroke-width:1.0;"/><path d="M244.5161,88.5196 C322.554,83.5256 427.5,87.7222 427.5,101.1094 C427.5,114.4966 328.5417,119.0763 250.5038,114.0823 " fill="none" style="stroke:#181818;stroke-width:1.0;stroke-dasharray:7.0,7.0;"/><text fill="#000000" font-family="sans-serif" font-size="13" lengthAdjust="spacing" textLength="66.479" x="477.1646" y="98.6045">References</text><text fill="#000000" font-family="sans-serif" font-size="13" lengthAdjust="spacing" textLength="161.8081" x="429.5" y="114.9561">(reserved: HTML/CSS links)</text><!--SRC=[JPB1RXCn48RlVeeX5zh3RW29Imv8LHlQI0q7mX6fcjYJjLLxlB9dKwqe4W_1E_0UF0fFmcoI1cxZcN- -yVpsgxvWbn0YZdaGg8a46SrhMAOjEKSE0eFBjiwnM1-4h0o5vc_UDV-Vs-JWpu-VyFlNUxX1GKZPKJGI91BS5kpzCNCGhR6_Mi55VcAbRqT8s6DeR2vqQOoDM2jy3DhtpG3qA1uMKAZFJQ684lQawOZS3TYHbkvFuSfftcOMOddmMBtv_aBRZ6cRuu77cAR-ny1EUtS3MmcPuHcEocVG_Nrs6hHjgyBQ8wkmvg5OWgApQE8UxZTxEuEc-G2pX3pENgOiu8PsWQaUHPFW42nWbVfSf7xbYu4BrHptkhzWwKWgx29s7RbBSy9CVMVYDSPuuhNjcVUPTbI8BKr81L9Hu0BklgplvzUR3SJ0ZrKjvIm4sooIaswqt5CP_nb8AUXqyGIRg_KIM5zfJauBrMDFTVBWKnOVkDDVyCHL2c5IMyW6Z8t5IXNmZ6iDgR7JGFCN]--></g></svg>