<svg xmlns="http://www.w3.org/2000/svg" xmlns:xlink="http://www.w3.org/1999/xlink" contentStyleType="text/css" height="395px" preserveAspectRatio="none" style="width:620px;height:395px;background:#FFFFFF;" version="1.1" viewBox="0 0 620 395" width="620px" zoomAndPan="magnify"><title>Graph model &#8212; Compass (owned by compass-core)</title><defs/><g><text fill="#000000" font-family="sans-serif" font-size="14" font-weight="bold" lengthAdjust="spacing" textLength="348.1748" x="10" y="24.5332">Graph model &#8212; Compass (owned by compass-core)</text><!--class File--><g id="elem_File"><rect codeLine="4" fill="#F1F1F1" height="100.8281" id="File" rx="2.5" ry="2.5" style="stroke:#181818;stroke-width:0.5;" width="155.2471" x="110.0874" y="50.6094"/><ellipse cx="172.1816" cy="66.6094" fill="#ADD1B2" rx="11" ry="11" style="stroke:#181818;stroke-width:1.0;"/><path d="M174.9473,62.4844 Q175.1035,62.2656 175.291,62.1563 Q175.4785,62.0469 175.6973,62.0469 Q176.0723,62.0469 176.3066,62.3125 Q176.541,62.5625 176.541,63.1719 L176.541,64.625 Q176.541,65.2344 176.3066,65.5 Q176.0723,65.7656 175.6973,65.7656 Q175.3535,65.7656 175.1504,65.5625 Q174.9473,65.375 174.8379,64.8594 Q174.791,64.5 174.6035,64.3125 Q174.2754,63.9375 173.666,63.7188 Q173.0566,63.5 172.4316,63.5 Q171.666,63.5 171.0254,63.8281 Q170.4004,64.1563 169.9004,64.9063 Q169.416,65.6563 169.416,66.6875 L169.416,67.7813 Q169.416,69.0156 170.3066,69.8438 Q171.1973,70.6563 172.791,70.6563 Q173.7285,70.6563 174.3848,70.4063 Q174.7754,70.25 175.1973,69.8125 Q175.4629,69.5469 175.6035,69.4688 Q175.7598,69.3906 175.9629,69.3906 Q176.291,69.3906 176.541,69.6563 Q176.8066,69.9063 176.8066,70.25 Q176.8066,70.5938 176.4629,71 Q175.9629,71.5781 175.166,71.9063 Q174.0879,72.3594 172.791,72.3594 Q171.2754,72.3594 170.0723,71.7344 Q169.0879,71.2344 168.4004,70.1719 Q167.7129,69.0938 167.7129,67.8125 L167.7129,66.6563 Q167.7129,65.3281 168.3223,64.1875 Q168.9473,63.0313 170.041,62.4219 Q171.1348,61.7969 172.3691,61.7969 Q173.1035,61.7969 173.7441,61.9688 Q174.4004,62.125 174.9473,62.4844 Z " fill="#000000"/><text fill="#000000" font-family="sans-serif" font-size="14" lengthAdjust="spacing" textLength="22.5586" x="192.6816" y="72.3379">File</text><line style="stroke:#181818;stroke-width:0.5;" x1="111.0874" x2="264.3345" y1="82.6094" y2="82.6094"/><text fill="#000000" font-family="sans-serif" font-size="14" lengthAdjust="spacing" textLength="116.7305" x="116.0874" y="101.1426">path : repo-relative</text><text fill="#000000" font-family="sans-serif" font-size="14" lengthAdjust="spacing" textLength="143.2471" x="116.0874" y="118.752">language : LanguageId</text><text fill="#000000" font-family="sans-serif" font-size="14" lengthAdjust="spacing" textLength="84.0684" x="116.0874" y="136.3613">content_hash</text><line style="stroke:#181818;stroke-width:0.5;" x1="111.0874" x2="264.3345" y1="143.4375" y2="143.4375"/></g><!--class Symbol--><g id="elem_Symbol"><rect codeLine="10" fill="#F1F1F1" height="100.8281" id="Symbol" rx="2.5" ry="2.5" style="stroke:#181818;stroke-width:0.5;" width="222.8955" x="76.0874" y="207.6094"/><ellipse cx="159.9438" cy="223.6094" fill="#ADD1B2" rx="11" ry="11" style="stroke:#181818;stroke-width:1.0;"/><path d="M162.7095,219.4844 Q162.8657,219.2656 163.0532,219.1563 Q163.2407,219.0469 163.4595,219.0469 Q163.8345,219.0469 164.0688,219.3125 Q164.3032,219.5625 164.3032,220.1719 L164.3032,221.625 Q164.3032,222.2344 164.0688,222.5 Q163.8345,222.7656 163.4595,222.7656 Q163.1157,222.7656 162.9126,222.5625 Q162.7095,222.375 162.6001,221.8594 Q162.5532,221.5 162.3657,221.3125 Q162.0376,220.9375 161.4282,220.7188 Q160.8188,220.5 160.1938,220.5 Q159.4282,220.5 158.7876,220.8281 Q158.1626,221.1563 157.6626,221.9063 Q157.1782,222.6563 157.1782,223.6875 L157.1782,224.7813 Q157.1782,226.0156 158.0688,226.8438 Q158.9595,227.6563 160.5532,227.6563 Q161.4907,227.6563 162.147,227.4063 Q162.5376,227.25 162.9595,226.8125 Q163.2251,226.5469 163.3657,226.4688 Q163.522,226.3906 163.7251,226.3906 Q164.0532,226.3906 164.3032,226.6563 Q164.5688,226.9063 164.5688,227.25 Q164.5688,227.5938 164.2251,228 Q163.7251,228.5781 162.9282,228.9063 Q161.8501,229.3594 160.5532,229.3594 Q159.0376,229.3594 157.8345,228.7344 Q156.8501,228.2344 156.1626,227.1719 Q155.4751,226.0938 155.4751,224.8125 L155.4751,223.6563 Q155.4751,222.3281 156.0845,221.1875 Q156.7095,220.0313 157.8032,219.4219 Q158.897,218.7969 160.1313,218.7969 Q160.8657,218.7969 161.5063,218.9688 Q162.1626,219.125 162.7095,219.4844 Z " fill="#000000"/><text fill="#000000" font-family="sans-serif" font-size="14" lengthAdjust="spacing" textLength="46.6826" x="180.4438" y="229.3379">Symbol</text><line style="stroke:#181818;stroke-width:0.5;" x1="77.0874" x2="297.9829" y1="239.6094" y2="239.6094"/><text fill="#000000" font-family="sans-serif" font-size="14" lengthAdjust="spacing" textLength="35.0205" x="82.0874" y="258.1426">name</text><text fill="#000000" font-family="sans-serif" font-size="14" lengthAdjust="spacing" textLength="210.8955" x="82.0874" y="275.752">kind : function | class | method | ...</text><text fill="#000000" font-family="sans-serif" font-size="14" lengthAdjust="spacing" textLength="123.7441" x="82.0874" y="293.3613">span : source range</text><line style="stroke:#181818;stroke-width:0.5;" x1="77.0874" x2="297.9829" y1="300.4375" y2="300.4375"/></g><g id="elem_GMN8"><path d="M26.5874,345.6094 L26.5874,388.3125 A0,0 0 0 0 26.5874,388.3125 L348.9424,388.3125 A0,0 0 0 0 348.9424,388.3125 L348.9424,355.6094 L338.9424,345.6094 L191.5874,345.6094 L187.5874,308.8504 L183.5874,345.6094 L26.5874,345.6094 A0,0 0 0 0 26.5874,345.6094 " fill="#FEFFDD" style="stroke:#181818;stroke-width:0.5;"/><path d="M338.9424,345.6094 L338.9424,355.6094 L348.9424,355.6094 L338.9424,345.6094 " fill="#FEFFDD" style="stroke:#181818;stroke-width:0.5;"/><text fill="#000000" font-family="sans-serif" font-size="13" lengthAdjust="spacing" textLength="301.355" x="32.5874" y="364.1045">Every language emits the SAME node/edge shapes.</text><text fill="#000000" font-family="sans-serif" font-size="13" lengthAdjust="spacing" textLength="273.1587" x="32.5874" y="380.4561">Nothing downstream special-cases a language.</text></g><polygon fill="#181818" points="187.5874,207.5719,191.5874,198.5719,187.5874,202.5719,183.5874,198.5719,187.5874,207.5719" style="stroke:#181818;stroke-width:1.0;"/><path d="M187.5874,152.0055 C187.5874,169.7938 187.5874,183.8139 187.5874,201.5719 " fill="none" style="stroke:#181818;stroke-width:1.0;"/><text fill="#000000" font-family="sans-serif" font-size="13" lengthAdjust="spacing" textLength="44.0781" x="189.5874" y="185.1045">Defines</text><text fill="#000000" font-family="sans-serif" font-size="13" lengthAdjust="spacing" textLength="31.7891" x="155.5874" y="204.067">many</text><text fill="#000000" font-family="sans-serif" font-size="13" lengthAdjust="spacing" textLength="7.23" x="179.5874" y="166.5007">1</text><polygon fill="#181818" points="265.1529,107.6346,274.5062,110.7194,270.1281,107.1371,273.7103,102.7591,265.1529,107.6346" style="stroke:#181818;stroke-width:1.0;"/><path d="M265.1529,94.5842 C275.9024,95.6589 283.0874,97.834 283.0874,101.1094 C283.0874,104.3848 281.8726,105.9629 271.1231,107.0377 " fill="none" style="stroke:#181818;stroke-width:1.0;"/><text fill="#000000" font-family="sans-serif" font-size="13" lengthAdjust="spacing" textLength="43.3418" x="344.3523" y="98.6045">Imports</text><text fill="#000000" font-family="sans-serif" font-size="13" lengthAdjust="spacing" textLength="161.8716" x="285.0874" y="114.9561">(unresolved targets flagged)</text><polygon fill="#181818" points="299.4811,268.4189,309.0784,270.6308,304.3895,267.4662,307.5541,262.7774,299.4811,268.4189" style="stroke:#181818;stroke-width:1.0;"/><path d="M299.4811,247.7998 C310.2583,249.8916 317.0874,253.3281 317.0874,258.1094 C317.0874,262.8906 316.1484,265.1839 305.3712,267.2757 " fill="none" style="stroke:#181818;stroke-width:1.0;"/><text fill="#000000" font-family="sans-serif" font-size="13" lengthAdjust="spacing" textLength="28.8945" x="319.0874" y="263.6045">Calls</text><polygon fill="#181818" points="265.1035,113.6991,273.8297,118.2657,270.0933,114.0184,274.3406,110.282,265.1035,113.6991" style="stroke:#181818;stroke-width:1.0;"/><path d="M265.1035,88.5196 C343.1414,83.5256 448.0874,87.7222 448.0874,101.1094 C448.0874,114.4966 349.1291,119.0763 271.0912,114.0823 " fill="none" style="stroke:#181818;stroke-width:1.0;stroke-dasharray:7.0,7.0;"/><text fill="#000000" font-family="sans-serif" font-size="13" lengthAdjust="spacing" textLength="66.479" x="497.752" y="98.6045">References</text><text fill="#000000" font-family="sans-serif" font-size="13" lengthAdjust="spacing" textLength="161.8081" x="450.0874" y="114.9561">(reserved: HTML/CSS links)</text><!--SRC=[JP91RXin34NtEWNhJPB5Z9C2tNXHe72SDa3IHTrbWOAMw94GYHf870U3f40FqJlq7ZrAJrAExRZPSSZFzpLVUjCNx192n34F0ZMH8ACvWrNQa7Fa832uREiSY_L1oCfGQ7xvjddztIO7Vt_-WZ-_ty4r2aBAZgAH897WOy7U7pfxqJAd7ck5y_p8oj-CO0-TnkP25yROE8rlWku-6O0UnSC22lMvAHHHmewq7P6x0JlIqTsnl7NQjvc5MBvxhDxyUA6jnxJ9SSzZJDF-Gs2dkzk1hOJCy0m7vJDe1ZuxBTgsLM7jaLLOyr0iGL4lchZxyyskPj0qxs6MaCVPYyi2hcaRcEf1D0dsnG9kKv-Br6zyFd2XckDE4n0i7Kc5RSIk8tTXZfXfxqHSOen7NjkUU5zeIuNOqeHK81K5Bk3Jr_kx-NAzXXZueMgad8LWaqLoqZzQxQYC_mEa5DHTFC7wm_qAM6zgJau7rMDFTShWSnOVkDENyCXL2c7IMCW6Z8t5IXNmX6iDQR2JeVa7]--></g></svg>