<svg xmlns="http://www.w3.org/2000/svg" xmlns:xlink="http://www.w3.org/1999/xlink" contentStyleType="text/css" height="1045px" preserveAspectRatio="none" style="width:1019px;height:1045px;background:#FFFFFF;" version="1.1" viewBox="0 0 1019 1045" width="1019px" zoomAndPan="magnify"><title>Flow D &#8212; Live visual map (compass map)</title><defs/><g><text fill="#000000" font-family="sans-serif" font-size="14" font-weight="bold" lengthAdjust="spacing" textLength="278.9541" x="366.2671" y="29.5332">Flow D &#8212; Live visual map (compass map)</text><line style="stroke:#181818;stroke-width:0.5;stroke-dasharray:5.0,5.0;" x1="39" x2="39" y1="121.2188" y2="963.3594"/><line style="stroke:#181818;stroke-width:0.5;stroke-dasharray:5.0,5.0;" x1="135.8135" x2="135.8135" y1="121.2188" y2="963.3594"/><line style="stroke:#181818;stroke-width:0.5;stroke-dasharray:5.0,5.0;" x1="320.7759" x2="320.7759" y1="121.2188" y2="963.3594"/><line style="stroke:#181818;stroke-width:0.5;stroke-dasharray:5.0,5.0;" x1="563.417" x2="563.417" y1="121.2188" y2="963.3594"/><line style="stroke:#181818;stroke-width:0.5;stroke-dasharray:5.0,5.0;" x1="692.8301" x2="692.8301" y1="121.2188" y2="963.3594"/><line style="stroke:#181818;stroke-width:0.5;stroke-dasharray:5.0,5.0;" x1="802.1191" x2="802.1191" y1="121.2188" y2="963.3594"/><line style="stroke:#181818;stroke-width:0.5;stroke-dasharray:5.0,5.0;" x1="948.4131" x2="948.4131" y1="121.2188" y2="963.3594"/><text fill="#000000" font-family="sans-serif" font-size="14" lengthAdjust="spacing" textLength="63.8135" x="5" y="118.1426">Developer</text><ellipse cx="39.9067" cy="52.1094" fill="#E2E2F0" rx="8" ry="8" style="stroke:#181818;stroke-width:0.5;"/><path d="M39.9067,60.1094 L39.9067,87.1094 M26.9067,68.1094 L52.9067,68.1094 M39.9067,87.1094 L26.9067,102.1094 M39.9067,87.1094 L52.9067,102.1094 " fill="none" style="stroke:#181818;stroke-width:0.5;"/><text fill="#000000" font-family="sans-serif" font-size="14" lengthAdjust="spacing" textLength="63.8135" x="5" y="976.8926">Developer</text><ellipse cx="39.9067" cy="988.4688" fill="#E2E2F0" rx="8" ry="8" style="stroke:#181818;stroke-width:0.5;"/><path d="M39.9067,996.4688 L39.9067,1023.4688 M26.9067,1004.4688 L52.9067,1004.4688 M39.9067,1023.4688 L26.9067,1038.4688 M39.9067,1023.4688 L52.9067,1038.4688 " fill="none" style="stroke:#181818;stroke-width:0.5;"/><rect fill="#E2E2F0" height="49.2188" rx="2.5" ry="2.5" style="stroke:#181818;stroke-width:0.5;" width="103.4688" x="84.8135" y="71"/><text fill="#000000" font-family="sans-serif" font-size="14" lengthAdjust="spacing" textLength="51.3447" x="110.8755" y="92.5332">Browser</text><text fill="#000000" font-family="sans-serif" font-size="14" lengthAdjust="spacing" textLength="89.4688" x="91.8135" y="110.1426">(Cytoscape.js)</text><rect fill="#E2E2F0" height="49.2188" rx="2.5" ry="2.5" style="stroke:#181818;stroke-width:0.5;" width="103.4688" x="84.8135" y="962.3594"/><text fill="#000000" font-family="sans-serif" font-size="14" lengthAdjust="spacing" textLength="51.3447" x="110.8755" y="983.8926">Browser</text><text fill="#000000" font-family="sans-serif" font-size="14" lengthAdjust="spacing" textLength="89.4688" x="91.8135" y="1001.502">(Cytoscape.js)</text><rect fill="#E2E2F0" height="49.2188" rx="2.5" ry="2.5" style="stroke:#181818;stroke-width:0.5;" width="110.4688" x="265.7759" y="71"/><text fill="#000000" font-family="sans-serif" font-size="14" lengthAdjust="spacing" textLength="73.9033" x="284.0586" y="92.5332">compass-cli</text><text fill="#000000" font-family="sans-serif" font-size="14" lengthAdjust="spacing" textLength="96.4688" x="272.7759" y="110.1426">(compass map)</text><rect fill="#E2E2F0" height="49.2188" rx="2.5" ry="2.5" style="stroke:#181818;stroke-width:0.5;" width="110.4688" x="265.7759" y="962.3594"/><text fill="#000000" font-family="sans-serif" font-size="14" lengthAdjust="spacing" textLength="73.9033" x="284.0586" y="983.8926">compass-cli</text><text fill="#000000" font-family="sans-serif" font-size="14" lengthAdjust="spacing" textLength="96.4688" x="272.7759" y="1001.502">(compass map)</text><rect fill="#E2E2F0" height="49.2188" rx="2.5" ry="2.5" style="stroke:#181818;stroke-width:0.5;" width="142.4131" x="492.417" y="71"/><text fill="#000000" font-family="sans-serif" font-size="14" lengthAdjust="spacing" textLength="77.793" x="524.7271" y="92.5332">compass-viz</text><text fill="#000000" font-family="sans-serif" font-size="14" lengthAdjust="spacing" textLength="128.4131" x="499.417" y="110.1426">(tiny_http, 127.0.0.1)</text><rect fill="#E2E2F0" height="49.2188" rx="2.5" ry="2.5" style="stroke:#181818;stroke-width:0.5;" width="142.4131" x="492.417" y="962.3594"/><text fill="#000000" font-family="sans-serif" font-size="14" lengthAdjust="spacing" textLength="77.793" x="524.7271" y="983.8926">compass-viz</text><text fill="#000000" font-family="sans-serif" font-size="14" lengthAdjust="spacing" textLength="128.4131" x="499.417" y="1001.502">(tiny_http, 127.0.0.1)</text><rect fill="#E2E2F0" height="31.6094" rx="2.5" ry="2.5" style="stroke:#181818;stroke-width:0.5;" width="97.2891" x="644.8301" y="88.6094"/><text fill="#000000" font-family="sans-serif" font-size="14" lengthAdjust="spacing" textLength="83.2891" x="651.8301" y="110.1426">engine::index</text><rect fill="#E2E2F0" height="31.6094" rx="2.5" ry="2.5" style="stroke:#181818;stroke-width:0.5;" width="97.2891" x="644.8301" y="962.3594"/><text fill="#000000" font-family="sans-serif" font-size="14" lengthAdjust="spacing" textLength="83.2891" x="651.8301" y="983.8926">engine::index</text><rect fill="#E2E2F0" height="49.2188" rx="2.5" ry="2.5" style="stroke:#181818;stroke-width:0.5;" width="100.3926" x="752.1191" y="71"/><text fill="#000000" font-family="sans-serif" font-size="14" lengthAdjust="spacing" textLength="86.3926" x="759.1191" y="92.5332">engine::watch</text><text fill="#000000" font-family="sans-serif" font-size="14" lengthAdjust="spacing" textLength="42.7861" x="780.9224" y="110.1426">(notify)</text><rect fill="#E2E2F0" height="49.2188" rx="2.5" ry="2.5" style="stroke:#181818;stroke-width:0.5;" width="100.3926" x="752.1191" y="962.3594"/><text fill="#000000" font-family="sans-serif" font-size="14" lengthAdjust="spacing" textLength="86.3926" x="759.1191" y="983.8926">engine::watch</text><text fill="#000000" font-family="sans-serif" font-size="14" lengthAdjust="spacing" textLength="42.7861" x="780.9224" y="1001.502">(notify)</text><text fill="#000000" font-family="sans-serif" font-size="14" lengthAdjust="spacing" textLength="112.0752" x="889.4131" y="118.1426">Codebase on disk</text><path d="M930.4507,67.6094 C930.4507,57.6094 948.4507,57.6094 948.4507,57.6094 C948.4507,57.6094 966.4507,57.6094 966.4507,67.6094 L966.4507,93.6094 C966.4507,103.6094 948.4507,103.6094 948.4507,103.6094 C948.4507,103.6094 930.4507,103.6094 930.4507,93.6094 L930.4507,67.6094 " fill="#E2E2F0" style="stroke:#181818;stroke-width:1.5;"/><path d="M930.4507,67.6094 C930.4507,77.6094 948.4507,77.6094 948.4507,77.6094 C948.4507,77.6094 966.4507,77.6094 966.4507,67.6094 " fill="none" style="stroke:#181818;stroke-width:1.5;"/><text fill="#000000" font-family="sans-serif" font-size="14" lengthAdjust="spacing" textLength="112.0752" x="889.4131" y="976.8926">Codebase on disk</text><path d="M930.4507,989.9688 C930.4507,979.9688 948.4507,979.9688 948.4507,979.9688 C948.4507,979.9688 966.4507,979.9688 966.4507,989.9688 L966.4507,1015.9688 C966.4507,1025.9688 948.4507,1025.9688 948.4507,1025.9688 C948.4507,1025.9688 930.4507,1025.9688 930.4507,1015.9688 L930.4507,989.9688 " fill="#E2E2F0" style="stroke:#181818;stroke-width:1.5;"/><path d="M930.4507,989.9688 C930.4507,999.9688 948.4507,999.9688 948.4507,999.9688 C948.4507,999.9688 966.4507,999.9688 966.4507,989.9688 " fill="none" style="stroke:#181818;stroke-width:1.5;"/><rect fill="#EEEEEE" height="3" style="stroke:#EEEEEE;stroke-width:1.0;" width="1012.4883" x="0" y="152.3945"/><line style="stroke:#000000;stroke-width:1.0;" x1="0" x2="1012.4883" y1="152.3945" y2="152.3945"/><line style="stroke:#000000;stroke-width:1.0;" x1="0" x2="1012.4883" y1="155.3945" y2="155.3945"/><rect fill="#EEEEEE" height="24.3516" style="stroke:#000000;stroke-width:2.0;" width="61.6709" x="475.4087" y="141.2188"/><text fill="#000000" font-family="sans-serif" font-size="13" font-weight="bold" lengthAdjust="spacing" textLength="44.0591" x="481.4087" y="158.7139">startup</text><polygon fill="#181818" points="309.0103,193.9219,319.0103,197.9219,309.0103,201.9219,313.0103,197.9219" style="stroke:#181818;stroke-width:1.0;"/><line style="stroke:#181818;stroke-width:1.0;" x1="39.9067" x2="315.0103" y1="197.9219" y2="197.9219"/><text fill="#000000" font-family="sans-serif" font-size="13" lengthAdjust="spacing" textLength="80.9199" x="46.9067" y="193.0654">compass map</text><polygon fill="#181818" points="681.4746,224.2734,691.4746,228.2734,681.4746,232.2734,685.4746,228.2734" style="stroke:#181818;stroke-width:1.0;"/><line style="stroke:#181818;stroke-width:1.0;" x1="321.0103" x2="687.4746" y1="228.2734" y2="228.2734"/><text fill="#000000" font-family="sans-serif" font-size="13" lengthAdjust="spacing" textLength="65.7554" x="328.0103" y="223.417">index(repo)</text><polygon fill="#181818" points="332.0103,254.625,322.0103,258.625,332.0103,262.625,328.0103,258.625" style="stroke:#181818;stroke-width:1.0;"/><line style="stroke:#181818;stroke-width:1.0;stroke-dasharray:2.0,2.0;" x1="326.0103" x2="692.4746" y1="258.625" y2="258.625"/><text fill="#000000" font-family="sans-serif" font-size="13" lengthAdjust="spacing" textLength="36.1309" x="338.0103" y="253.7686">Graph</text><polygon fill="#181818" points="551.6235,284.9766,561.6235,288.9766,551.6235,292.9766,555.6235,288.9766" style="stroke:#181818;stroke-width:1.0;"/><line style="stroke:#181818;stroke-width:1.0;" x1="321.0103" x2="557.6235" y1="288.9766" y2="288.9766"/><text fill="#000000" font-family="sans-serif" font-size="13" lengthAdjust="spacing" textLength="218.6133" x="328.0103" y="284.1201">serve(state=Graph, 127.0.0.1:62049*)</text><path d="M568,301.9766 L568,343.9766 L734,343.9766 L734,311.9766 L724,301.9766 L568,301.9766 " fill="#FEFFDD" style="stroke:#181818;stroke-width:0.5;"/><path d="M724,301.9766 L724,311.9766 L734,311.9766 L724,301.9766 " fill="#FEFFDD" style="stroke:#181818;stroke-width:0.5;"/><ellipse cx="579.5" cy="315.8281" fill="#000000" rx="2.5" ry="2.5" style="stroke:#000000;stroke-width:0.0;"/><text fill="#000000" font-family="sans-serif" font-size="13" lengthAdjust="spacing" textLength="122.1226" x="586" y="320.4717">uncommon high port;</text><text fill="#000000" font-family="sans-serif" font-size="13" lengthAdjust="spacing" textLength="138.0044" x="581.2236" y="336.8232">free-port fallback if busy</text><polygon fill="#181818" points="790.3154,368.0313,800.3154,372.0313,790.3154,376.0313,794.3154,372.0313" style="stroke:#181818;stroke-width:1.0;"/><line style="stroke:#181818;stroke-width:1.0;" x1="321.0103" x2="796.3154" y1="372.0313" y2="372.0313"/><text fill="#000000" font-family="sans-serif" font-size="13" lengthAdjust="spacing" textLength="140.2007" x="328.0103" y="367.1748">watch(repo, on_change)</text><polygon fill="#181818" points="147.5479,398.3828,137.5479,402.3828,147.5479,406.3828,143.5479,402.3828" style="stroke:#181818;stroke-width:1.0;"/><line style="stroke:#181818;stroke-width:1.0;" x1="141.5479" x2="320.0103" y1="402.3828" y2="402.3828"/><text fill="#000000" font-family="sans-serif" font-size="13" lengthAdjust="spacing" textLength="160.4624" x="153.5479" y="397.5264">open http://127.0.0.1:&lt;port&gt;</text><rect fill="#EEEEEE" height="3" style="stroke:#EEEEEE;stroke-width:1.0;" width="1012.4883" x="0" y="431.5586"/><line style="stroke:#000000;stroke-width:1.0;" x1="0" x2="1012.4883" y1="431.5586" y2="431.5586"/><line style="stroke:#000000;stroke-width:1.0;" x1="0" x2="1012.4883" y1="434.5586" y2="434.5586"/><rect fill="#EEEEEE" height="24.3516" style="stroke:#000000;stroke-width:2.0;" width="76.8354" x="467.8264" y="420.3828"/><text fill="#000000" font-family="sans-serif" font-size="13" font-weight="bold" lengthAdjust="spacing" textLength="59.2236" x="473.8264" y="437.8779">first paint</text><polygon fill="#181818" points="551.6235,473.0859,561.6235,477.0859,551.6235,481.0859,555.6235,477.0859" style="stroke:#181818;stroke-width:1.0;"/><line style="stroke:#181818;stroke-width:1.0;" x1="136.5479" x2="557.6235" y1="477.0859" y2="477.0859"/><text fill="#000000" font-family="sans-serif" font-size="13" lengthAdjust="spacing" textLength="33.9473" x="143.5479" y="472.2295">GET /</text><polygon fill="#181818" points="147.5479,503.4375,137.5479,507.4375,147.5479,511.4375,143.5479,507.4375" style="stroke:#181818;stroke-width:1.0;"/><line style="stroke:#181818;stroke-width:1.0;stroke-dasharray:2.0,2.0;" x1="141.5479" x2="562.6235" y1="507.4375" y2="507.4375"/><text fill="#000000" font-family="sans-serif" font-size="13" lengthAdjust="spacing" textLength="256.896" x="153.5479" y="502.5811">app shell + Cytoscape.js (embedded, offline)</text><polygon fill="#181818" points="551.6235,533.7891,561.6235,537.7891,551.6235,541.7891,555.6235,537.7891" style="stroke:#181818;stroke-width:1.0;"/><line style="stroke:#181818;stroke-width:1.0;" x1="136.5479" x2="557.6235" y1="537.7891" y2="537.7891"/><text fill="#000000" font-family="sans-serif" font-size="13" lengthAdjust="spacing" textLength="136.9253" x="143.5479" y="532.9326">GET /graph?symbols=0</text><polygon fill="#181818" points="147.5479,564.1406,137.5479,568.1406,147.5479,572.1406,143.5479,568.1406" style="stroke:#181818;stroke-width:1.0;"/><line style="stroke:#181818;stroke-width:1.0;stroke-dasharray:2.0,2.0;" x1="141.5479" x2="562.6235" y1="568.1406" y2="568.1406"/><text fill="#000000" font-family="sans-serif" font-size="13" lengthAdjust="spacing" textLength="249.9834" x="153.5479" y="563.2842">GraphView as Cytoscape elements (JSON)</text><polygon fill="#181818" points="551.6235,594.4922,561.6235,598.4922,551.6235,602.4922,555.6235,598.4922" style="stroke:#181818;stroke-width:1.0;"/><line style="stroke:#181818;stroke-width:1.0;" x1="136.5479" x2="557.6235" y1="598.4922" y2="598.4922"/><text fill="#000000" font-family="sans-serif" font-size="13" lengthAdjust="spacing" textLength="178.4771" x="143.5479" y="593.6357">GET /events  (SSE, held open)</text><rect fill="#EEEEEE" height="3" style="stroke:#EEEEEE;stroke-width:1.0;" width="1012.4883" x="0" y="627.668"/><line style="stroke:#000000;stroke-width:1.0;" x1="0" x2="1012.4883" y1="627.668" y2="627.668"/><line style="stroke:#000000;stroke-width:1.0;" x1="0" x2="1012.4883" y1="630.668" y2="630.668"/><rect fill="#EEEEEE" height="24.3516" style="stroke:#000000;stroke-width:2.0;" width="226.3926" x="393.0479" y="616.4922"/><text fill="#000000" font-family="sans-serif" font-size="13" font-weight="bold" lengthAdjust="spacing" textLength="208.7808" x="399.0479" y="633.9873">live update (developer edits a file)</text><polygon fill="#181818" points="936.4507,669.1953,946.4507,673.1953,936.4507,677.1953,940.4507,673.1953" style="stroke:#181818;stroke-width:1.0;"/><line style="stroke:#181818;stroke-width:1.0;" x1="39.9067" x2="942.4507" y1="673.1953" y2="673.1953"/><text fill="#000000" font-family="sans-serif" font-size="13" lengthAdjust="spacing" textLength="47.6899" x="46.9067" y="668.3389">save file</text><polygon fill="#181818" points="813.3154,699.5469,803.3154,703.5469,813.3154,707.5469,809.3154,703.5469" style="stroke:#181818;stroke-width:1.0;"/><line style="stroke:#181818;stroke-width:1.0;" x1="807.3154" x2="947.4507" y1="703.5469" y2="703.5469"/><text fill="#000000" font-family="sans-serif" font-size="13" lengthAdjust="spacing" textLength="122.1353" x="819.3154" y="698.6904">fs event (debounced)</text><polygon fill="#181818" points="704.4746,729.8984,694.4746,733.8984,704.4746,737.8984,700.4746,733.8984" style="stroke:#181818;stroke-width:1.0;"/><line style="stroke:#181818;stroke-width:1.0;" x1="698.4746" x2="801.3154" y1="733.8984" y2="733.8984"/><text fill="#000000" font-family="sans-serif" font-size="13" lengthAdjust="spacing" textLength="77.3145" x="710.4746" y="729.042">reindex(repo)</text><polygon fill="#181818" points="790.3154,760.25,800.3154,764.25,790.3154,768.25,794.3154,764.25" style="stroke:#181818;stroke-width:1.0;"/><line style="stroke:#181818;stroke-width:1.0;stroke-dasharray:2.0,2.0;" x1="693.4746" x2="796.3154" y1="764.25" y2="764.25"/><text fill="#000000" font-family="sans-serif" font-size="13" lengthAdjust="spacing" textLength="38.6128" x="700.4746" y="759.3936">Graph'</text><polygon fill="#181818" points="574.6235,790.6016,564.6235,794.6016,574.6235,798.6016,570.6235,794.6016" style="stroke:#181818;stroke-width:1.0;"/><line style="stroke:#181818;stroke-width:1.0;" x1="568.6235" x2="801.3154" y1="794.6016" y2="794.6016"/><text fill="#000000" font-family="sans-serif" font-size="13" lengthAdjust="spacing" textLength="120.2627" x="580.6235" y="789.7451">state.publish(Graph')</text><line style="stroke:#181818;stroke-width:1.0;" x1="137.5479" x2="147.5479" y1="824.9531" y2="820.9531"/><line style="stroke:#181818;stroke-width:1.0;" x1="137.5479" x2="147.5479" y1="824.9531" y2="828.9531"/><line style="stroke:#181818;stroke-width:1.0;stroke-dasharray:2.0,2.0;" x1="136.5479" x2="562.6235" y1="824.9531" y2="824.9531"/><text fill="#000000" font-family="sans-serif" font-size="13" lengthAdjust="spacing" textLength="117.6411" x="153.5479" y="820.0967">SSE: event "update"</text><polygon fill="#181818" points="551.6235,851.3047,561.6235,855.3047,551.6235,859.3047,555.6235,855.3047" style="stroke:#181818;stroke-width:1.0;"/><line style="stroke:#181818;stroke-width:1.0;" x1="136.5479" x2="557.6235" y1="855.3047" y2="855.3047"/><text fill="#000000" font-family="sans-serif" font-size="13" lengthAdjust="spacing" textLength="136.9253" x="143.5479" y="850.4482">GET /graph?symbols=0</text><polygon fill="#181818" points="147.5479,881.6563,137.5479,885.6563,147.5479,889.6563,143.5479,885.6563" style="stroke:#181818;stroke-width:1.0;"/><line style="stroke:#181818;stroke-width:1.0;stroke-dasharray:2.0,2.0;" x1="141.5479" x2="562.6235" y1="885.6563" y2="885.6563"/><text fill="#000000" font-family="sans-serif" font-size="13" lengthAdjust="spacing" textLength="66.79" x="153.5479" y="880.7998">GraphView'</text><line style="stroke:#181818;stroke-width:1.0;" x1="136.5479" x2="178.5479" y1="932.3594" y2="932.3594"/><line style="stroke:#181818;stroke-width:1.0;" x1="178.5479" x2="178.5479" y1="932.3594" y2="945.3594"/><line style="stroke:#181818;stroke-width:1.0;" x1="137.5479" x2="178.5479" y1="945.3594" y2="945.3594"/><polygon fill="#181818" points="147.5479,941.3594,137.5479,945.3594,147.5479,949.3594,143.5479,945.3594" style="stroke:#181818;stroke-width:1.0;"/><text fill="#000000" font-family="sans-serif" font-size="13" lengthAdjust="spacing" textLength="164.0361" x="143.5479" y="911.1514">diff elements, keep positions</text><text fill="#000000" font-family="sans-serif" font-size="13" lengthAdjust="spacing" textLength="132.958" x="143.5479" y="927.5029">(map glides; no reload)</text><!--SRC=[dLJDRXCn4BxxAOPSkblormgAI4aHjA4IGY1HnAbIvLtFPaszjcLxauOJ3y4xy1uy2a_2sCccYSW9vP3TcM- -cU_pU9zOn-SD1yLNfWtW6mnSStO4iwP08L20r21CwKVSbRKCM8RMuMXyEjXz7pO2_lpu2Rz_dS4xPPPm1PcI2uI5z2rNq73RXpTNdmVZyVXvpe8C2ZjWhFkmZuMiD8tbtiUNd35U1kFW2XUeZ4K7t8F01RFS1LbAotM0tbjdbXxThSukLy7uabiSVlDvBu8Bju_Ti0zA9Gc_sol1ANmOlv3V2H-aNjtL8P2aazCNmp7zJjQ5bDylH3sN6YSJgGK-98WK3uSXInxAcjYr2R9QhVbIZ0aUUC4zGk_I24nFXiv4-li4ScWDOzCf-42yhONfb94xCBY8Gc02E_fOZ522fg14cYgBzJcBaS6svDfnMtTWKaKXydQ16VK8E4tf7VMJizFnivV7EQFX4PoSrm5CjIayXbRJ20tDN5C6h77X_5O3L0vn4D-WuaeLlBm7MK7H-bNNEUadYlIV1ksJzBkovdgEUOSg745eBuYV3cKo6ZtEzIhINoHtAkby0CibcKuEKT5MslNi2unOV1vqTDnQy3Kg1KzXTvyWmysze4cgIj7HvVzopQC_h_sgAOpoq_4-TJBlgyHbFBmjDw321dMW3kzlFdqyG4hR7zEGtTpC-a2pYIGwJ-hIPMijhGf29hON1OMa4axY5UOxYn6jZ6VAgIhcM0hiE5vvIFqYMM7e057aR9tShe_3GmlKCIIPHuyrcosA-pEqRQ6ahxCr9k_ysHX4-YQRxhsrfDx_MdoqAKnH8QjgQtCVxX4jBQENGHhjwUR53yzSIO7-7BGXUSfmKlqN]--></g></svg>