<svg xmlns="http://www.w3.org/2000/svg" xmlns:xlink="http://www.w3.org/1999/xlink" contentStyleType="text/css" height="834px" preserveAspectRatio="none" style="width:866px;height:834px;background:#FFFFFF;" version="1.1" viewBox="0 0 866 834" width="866px" zoomAndPan="magnify"><title>Initial index &#8212; Compass (two-phase extractor)</title><defs/><g><text fill="#000000" font-family="sans-serif" font-size="14" font-weight="bold" lengthAdjust="spacing" textLength="308.499" x="275.0225" y="29.5332">Initial index &#8212; Compass (two-phase extractor)</text><rect fill="none" height="109.4063" style="stroke:#000000;stroke-width:1.5;" width="536.4604" x="238.9595" y="306.5859"/><rect fill="none" height="125.7578" style="stroke:#000000;stroke-width:1.5;" width="536.4604" x="238.9595" y="534.0469"/><line style="stroke:#181818;stroke-width:0.5;stroke-dasharray:5.0,5.0;" x1="39" x2="39" y1="124.8281" y2="737.5078"/><line style="stroke:#181818;stroke-width:0.5;stroke-dasharray:5.0,5.0;" x1="189.7319" x2="189.7319" y1="124.8281" y2="737.5078"/><line style="stroke:#181818;stroke-width:0.5;stroke-dasharray:5.0,5.0;" x1="311.9595" x2="311.9595" y1="124.8281" y2="737.5078"/><line style="stroke:#181818;stroke-width:0.5;stroke-dasharray:5.0,5.0;" x1="554.624" x2="554.624" y1="124.8281" y2="737.5078"/><line style="stroke:#181818;stroke-width:0.5;stroke-dasharray:5.0,5.0;" x1="709.1787" x2="709.1787" y1="124.8281" y2="737.5078"/><line style="stroke:#181818;stroke-width:0.5;stroke-dasharray:5.0,5.0;" x1="814.4199" x2="814.4199" y1="124.8281" y2="737.5078"/><text fill="#000000" font-family="sans-serif" font-size="14" lengthAdjust="spacing" textLength="63.8135" x="5" y="121.752">Developer</text><ellipse cx="39.9067" cy="55.7188" fill="#E2E2F0" rx="8" ry="8" style="stroke:#181818;stroke-width:0.5;"/><path d="M39.9067,63.7188 L39.9067,90.7188 M26.9067,71.7188 L52.9067,71.7188 M39.9067,90.7188 L26.9067,105.7188 M39.9067,90.7188 L52.9067,105.7188 " fill="none" style="stroke:#181818;stroke-width:0.5;"/><text fill="#000000" font-family="sans-serif" font-size="14" lengthAdjust="spacing" textLength="63.8135" x="5" y="751.041">Developer</text><ellipse cx="39.9067" cy="762.6172" fill="#E2E2F0" rx="8" ry="8" style="stroke:#181818;stroke-width:0.5;"/><path d="M39.9067,770.6172 L39.9067,797.6172 M26.9067,778.6172 L52.9067,778.6172 M39.9067,797.6172 L26.9067,812.6172 M39.9067,797.6172 L52.9067,812.6172 " fill="none" style="stroke:#181818;stroke-width:0.5;"/><rect fill="#E2E2F0" height="49.2188" rx="2.5" ry="2.5" style="stroke:#181818;stroke-width:0.5;" width="97.2275" x="141.7319" y="74.6094"/><text fill="#000000" font-family="sans-serif" font-size="14" lengthAdjust="spacing" textLength="21.7861" x="179.4526" y="96.1426">CLI</text><text fill="#000000" font-family="sans-serif" font-size="14" lengthAdjust="spacing" textLength="83.2275" x="148.7319" y="113.752">(compass-cli)</text><rect fill="#E2E2F0" height="49.2188" rx="2.5" ry="2.5" style="stroke:#181818;stroke-width:0.5;" width="97.2275" x="141.7319" y="736.5078"/><text fill="#000000" font-family="sans-serif" font-size="14" lengthAdjust="spacing" textLength="21.7861" x="179.4526" y="758.041">CLI</text><text fill="#000000" font-family="sans-serif" font-size="14" lengthAdjust="spacing" textLength="83.2275" x="148.7319" y="775.6504">(compass-cli)</text><rect fill="#E2E2F0" height="49.2188" rx="2.5" ry="2.5" style="stroke:#181818;stroke-width:0.5;" width="126.0479" x="248.9595" y="74.6094"/><text fill="#000000" font-family="sans-serif" font-size="14" lengthAdjust="spacing" textLength="43.5928" x="290.187" y="96.1426">Engine</text><text fill="#000000" font-family="sans-serif" font-size="14" lengthAdjust="spacing" textLength="112.0479" x="255.9595" y="113.752">(compass-engine)</text><rect fill="#E2E2F0" height="49.2188" rx="2.5" ry="2.5" style="stroke:#181818;stroke-width:0.5;" width="126.0479" x="248.9595" y="736.5078"/><text fill="#000000" font-family="sans-serif" font-size="14" lengthAdjust="spacing" textLength="43.5928" x="290.187" y="758.041">Engine</text><text fill="#000000" font-family="sans-serif" font-size="14" lengthAdjust="spacing" textLength="112.0479" x="255.9595" y="775.6504">(compass-engine)</text><rect fill="#E2E2F0" height="49.2188" rx="2.5" ry="2.5" style="stroke:#181818;stroke-width:0.5;" width="178.5547" x="465.624" y="74.6094"/><text fill="#000000" font-family="sans-serif" font-size="14" lengthAdjust="spacing" textLength="56.0137" x="526.8945" y="96.1426">Extractor</text><text fill="#000000" font-family="sans-serif" font-size="14" lengthAdjust="spacing" textLength="164.5547" x="472.624" y="113.752">(compass-extract + lang-*)</text><rect fill="#E2E2F0" height="49.2188" rx="2.5" ry="2.5" style="stroke:#181818;stroke-width:0.5;" width="178.5547" x="465.624" y="736.5078"/><text fill="#000000" font-family="sans-serif" font-size="14" lengthAdjust="spacing" textLength="56.0137" x="526.8945" y="758.041">Extractor</text><text fill="#000000" font-family="sans-serif" font-size="14" lengthAdjust="spacing" textLength="164.5547" x="472.624" y="775.6504">(compass-extract + lang-*)</text><rect fill="#E2E2F0" height="49.2188" rx="2.5" ry="2.5" style="stroke:#181818;stroke-width:0.5;" width="111.2412" x="654.1787" y="74.6094"/><text fill="#000000" font-family="sans-serif" font-size="14" lengthAdjust="spacing" textLength="70.041" x="674.7788" y="96.1426">Core graph</text><text fill="#000000" font-family="sans-serif" font-size="14" lengthAdjust="spacing" textLength="97.2412" x="661.1787" y="113.752">(compass-core)</text><rect fill="#E2E2F0" height="49.2188" rx="2.5" ry="2.5" style="stroke:#181818;stroke-width:0.5;" width="111.2412" x="654.1787" y="736.5078"/><text fill="#000000" font-family="sans-serif" font-size="14" lengthAdjust="spacing" textLength="70.041" x="674.7788" y="758.041">Core graph</text><text fill="#000000" font-family="sans-serif" font-size="14" lengthAdjust="spacing" textLength="97.2412" x="661.1787" y="775.6504">(compass-core)</text><text fill="#000000" font-family="sans-serif" font-size="14" lengthAdjust="spacing" textLength="40.4688" x="791.7476" y="104.1426">Cache</text><text fill="#000000" font-family="sans-serif" font-size="14" lengthAdjust="spacing" textLength="73.124" x="775.4199" y="121.752">(.compass/)</text><path d="M796.9819,53.6094 C796.9819,43.6094 814.9819,43.6094 814.9819,43.6094 C814.9819,43.6094 832.9819,43.6094 832.9819,53.6094 L832.9819,79.6094 C832.9819,89.6094 814.9819,89.6094 814.9819,89.6094 C814.9819,89.6094 796.9819,89.6094 796.9819,79.6094 L796.9819,53.6094 " fill="#E2E2F0" style="stroke:#181818;stroke-width:1.5;"/><path d="M796.9819,53.6094 C796.9819,63.6094 814.9819,63.6094 814.9819,63.6094 C814.9819,63.6094 832.9819,63.6094 832.9819,53.6094 " fill="none" style="stroke:#181818;stroke-width:1.5;"/><text fill="#000000" font-family="sans-serif" font-size="14" lengthAdjust="spacing" textLength="40.4688" x="791.7476" y="751.041">Cache</text><text fill="#000000" font-family="sans-serif" font-size="14" lengthAdjust="spacing" textLength="73.124" x="775.4199" y="768.6504">(.compass/)</text><path d="M796.9819,781.7266 C796.9819,771.7266 814.9819,771.7266 814.9819,771.7266 C814.9819,771.7266 832.9819,771.7266 832.9819,781.7266 L832.9819,807.7266 C832.9819,817.7266 814.9819,817.7266 814.9819,817.7266 C814.9819,817.7266 796.9819,817.7266 796.9819,807.7266 L796.9819,781.7266 " fill="#E2E2F0" style="stroke:#181818;stroke-width:1.5;"/><path d="M796.9819,781.7266 C796.9819,791.7266 814.9819,791.7266 814.9819,791.7266 C814.9819,791.7266 832.9819,791.7266 832.9819,781.7266 " fill="none" style="stroke:#181818;stroke-width:1.5;"/><polygon fill="#181818" points="178.3457,153.1797,188.3457,157.1797,178.3457,161.1797,182.3457,157.1797" style="stroke:#181818;stroke-width:1.0;"/><line style="stroke:#181818;stroke-width:1.0;" x1="39.9067" x2="184.3457" y1="157.1797" y2="157.1797"/><text fill="#000000" font-family="sans-serif" font-size="13" lengthAdjust="spacing" textLength="126.439" x="46.9067" y="152.3232">compass (run in repo)</text><polygon fill="#181818" points="299.9834,183.5313,309.9834,187.5313,299.9834,191.5313,303.9834,187.5313" style="stroke:#181818;stroke-width:1.0;"/><line style="stroke:#181818;stroke-width:1.0;" x1="190.3457" x2="305.9834" y1="187.5313" y2="187.5313"/><text fill="#000000" font-family="sans-serif" font-size="13" lengthAdjust="spacing" textLength="82.3862" x="197.3457" y="182.6748">build full index</text><line style="stroke:#181818;stroke-width:1.0;" x1="311.9834" x2="353.9834" y1="234.2344" y2="234.2344"/><line style="stroke:#181818;stroke-width:1.0;" x1="353.9834" x2="353.9834" y1="234.2344" y2="247.2344"/><line style="stroke:#181818;stroke-width:1.0;" x1="312.9834" x2="353.9834" y1="247.2344" y2="247.2344"/><polygon fill="#181818" points="322.9834,243.2344,312.9834,247.2344,322.9834,251.2344,318.9834,247.2344" style="stroke:#181818;stroke-width:1.0;"/><text fill="#000000" font-family="sans-serif" font-size="13" lengthAdjust="spacing" textLength="137.998" x="318.9834" y="213.0264">walk (respect .gitignore)</text><text fill="#000000" font-family="sans-serif" font-size="13" lengthAdjust="spacing" textLength="179.5688" x="318.9834" y="229.3779">+ detect language from registry</text><rect fill="#EEEEEE" height="3" style="stroke:#EEEEEE;stroke-width:1.0;" width="859.5439" x="0" y="276.4102"/><line style="stroke:#000000;stroke-width:1.0;" x1="0" x2="859.5439" y1="276.4102" y2="276.4102"/><line style="stroke:#000000;stroke-width:1.0;" x1="0" x2="859.5439" y1="279.4102" y2="279.4102"/><rect fill="#EEEEEE" height="24.3516" style="stroke:#000000;stroke-width:2.0;" width="230.4297" x="314.5571" y="265.2344"/><text fill="#000000" font-family="sans-serif" font-size="13" font-weight="bold" lengthAdjust="spacing" textLength="212.8179" x="320.5571" y="282.7295">Phase 1 &#8212; per file, parallel (rayon)</text><path d="M238.9595,306.5859 L311.394,306.5859 L311.394,314.9375 L301.394,324.9375 L238.9595,324.9375 L238.9595,306.5859 " fill="#EEEEEE" style="stroke:#000000;stroke-width:1.5;"/><rect fill="none" height="109.4063" style="stroke:#000000;stroke-width:1.5;" width="536.4604" x="238.9595" y="306.5859"/><text fill="#000000" font-family="sans-serif" font-size="13" font-weight="bold" lengthAdjust="spacing" textLength="27.4346" x="253.9595" y="321.0811">loop</text><text fill="#000000" font-family="sans-serif" font-size="11" font-weight="bold" lengthAdjust="spacing" textLength="43.3931" x="326.394" y="320.0049">[per file]</text><polygon fill="#181818" points="542.9014,343.2891,552.9014,347.2891,542.9014,351.2891,546.9014,347.2891" style="stroke:#181818;stroke-width:1.0;"/><line style="stroke:#181818;stroke-width:1.0;" x1="311.9834" x2="548.9014" y1="347.2891" y2="347.2891"/><text fill="#000000" font-family="sans-serif" font-size="13" lengthAdjust="spacing" textLength="199.3926" x="318.9834" y="342.4326">extract(file, tree)  [tree-sitter parse]</text><polygon fill="#181818" points="322.9834,373.6406,312.9834,377.6406,322.9834,381.6406,318.9834,377.6406" style="stroke:#181818;stroke-width:1.0;"/><line style="stroke:#181818;stroke-width:1.0;stroke-dasharray:2.0,2.0;" x1="316.9834" x2="553.9014" y1="377.6406" y2="377.6406"/><text fill="#000000" font-family="sans-serif" font-size="13" lengthAdjust="spacing" textLength="203.81" x="328.9834" y="372.7842">symbols + raw imports + raw calls</text><polygon fill="#181818" points="697.7993,403.9922,707.7993,407.9922,697.7993,411.9922,701.7993,407.9922" style="stroke:#181818;stroke-width:1.0;"/><line style="stroke:#181818;stroke-width:1.0;" x1="311.9834" x2="703.7993" y1="407.9922" y2="407.9922"/><text fill="#000000" font-family="sans-serif" font-size="13" lengthAdjust="spacing" textLength="269.896" x="318.9834" y="403.1357">add File / Symbol nodes + Defines/Calls edges</text><line style="stroke:#181818;stroke-width:1.0;" x1="311.9834" x2="353.9834" y1="461.6953" y2="461.6953"/><line style="stroke:#181818;stroke-width:1.0;" x1="353.9834" x2="353.9834" y1="461.6953" y2="474.6953"/><line style="stroke:#181818;stroke-width:1.0;" x1="312.9834" x2="353.9834" y1="474.6953" y2="474.6953"/><polygon fill="#181818" points="322.9834,470.6953,312.9834,474.6953,322.9834,478.6953,318.9834,474.6953" style="stroke:#181818;stroke-width:1.0;"/><text fill="#000000" font-family="sans-serif" font-size="13" lengthAdjust="spacing" textLength="137.3062" x="318.9834" y="440.4873">build ResolutionContext</text><text fill="#000000" font-family="sans-serif" font-size="13" lengthAdjust="spacing" textLength="214.9507" x="318.9834" y="456.8389">(read-only path -&gt; FileId over all files)</text><rect fill="#EEEEEE" height="3" style="stroke:#EEEEEE;stroke-width:1.0;" width="859.5439" x="0" y="503.8711"/><line style="stroke:#000000;stroke-width:1.0;" x1="0" x2="859.5439" y1="503.8711" y2="503.8711"/><line style="stroke:#000000;stroke-width:1.0;" x1="0" x2="859.5439" y1="506.8711" y2="506.8711"/><rect fill="#EEEEEE" height="24.3516" style="stroke:#000000;stroke-width:2.0;" width="130.0098" x="364.7671" y="492.6953"/><text fill="#000000" font-family="sans-serif" font-size="13" font-weight="bold" lengthAdjust="spacing" textLength="112.3979" x="370.7671" y="510.1904">Phase 2 &#8212; per file</text><path d="M238.9595,534.0469 L311.394,534.0469 L311.394,542.3984 L301.394,552.3984 L238.9595,552.3984 L238.9595,534.0469 " fill="#EEEEEE" style="stroke:#000000;stroke-width:1.5;"/><rect fill="none" height="125.7578" style="stroke:#000000;stroke-width:1.5;" width="536.4604" x="238.9595" y="534.0469"/><text fill="#000000" font-family="sans-serif" font-size="13" font-weight="bold" lengthAdjust="spacing" textLength="27.4346" x="253.9595" y="548.542">loop</text><text fill="#000000" font-family="sans-serif" font-size="11" font-weight="bold" lengthAdjust="spacing" textLength="43.3931" x="326.394" y="547.4658">[per file]</text><polygon fill="#181818" points="542.9014,570.75,552.9014,574.75,542.9014,578.75,546.9014,574.75" style="stroke:#181818;stroke-width:1.0;"/><line style="stroke:#181818;stroke-width:1.0;" x1="311.9834" x2="548.9014" y1="574.75" y2="574.75"/><text fill="#000000" font-family="sans-serif" font-size="13" lengthAdjust="spacing" textLength="218.918" x="318.9834" y="569.8936">resolve(raw_imports, ctx, lang_config)</text><polygon fill="#181818" points="322.9834,601.1016,312.9834,605.1016,322.9834,609.1016,318.9834,605.1016" style="stroke:#181818;stroke-width:1.0;"/><line style="stroke:#181818;stroke-width:1.0;stroke-dasharray:2.0,2.0;" x1="316.9834" x2="553.9014" y1="605.1016" y2="605.1016"/><text fill="#000000" font-family="sans-serif" font-size="13" lengthAdjust="spacing" textLength="168.8477" x="328.9834" y="600.2451">resolved targets | Unresolved</text><polygon fill="#181818" points="697.7993,647.8047,707.7993,651.8047,697.7993,655.8047,701.7993,651.8047" style="stroke:#181818;stroke-width:1.0;"/><line style="stroke:#181818;stroke-width:1.0;" x1="311.9834" x2="703.7993" y1="651.8047" y2="651.8047"/><text fill="#000000" font-family="sans-serif" font-size="13" lengthAdjust="spacing" textLength="107.6753" x="318.9834" y="630.5967">add Imports edges</text><text fill="#000000" font-family="sans-serif" font-size="13" lengthAdjust="spacing" textLength="152.0962" x="318.9834" y="646.9482">(unresolved -&gt; Diagnostic)</text><polygon fill="#181818" points="802.9819,685.1563,812.9819,689.1563,802.9819,693.1563,806.9819,689.1563" style="stroke:#181818;stroke-width:1.0;"/><line style="stroke:#181818;stroke-width:1.0;" x1="311.9834" x2="808.9819" y1="689.1563" y2="689.1563"/><text fill="#000000" font-family="sans-serif" font-size="13" lengthAdjust="spacing" textLength="253.6333" x="318.9834" y="684.2998">write graph (versioned, content-hash keyed)</text><polygon fill="#181818" points="50.9067,715.5078,40.9067,719.5078,50.9067,723.5078,46.9067,719.5078" style="stroke:#181818;stroke-width:1.0;"/><line style="stroke:#181818;stroke-width:1.0;stroke-dasharray:2.0,2.0;" x1="44.9067" x2="189.3457" y1="719.5078" y2="719.5078"/><text fill="#000000" font-family="sans-serif" font-size="13" lengthAdjust="spacing" textLength="87.4263" x="56.9067" y="714.6514">overview ready</text><!--SRC=[ZLJ1RjD04BtlLmov4DCuWHuuL0eIIbefWWC2SQAecdWdpghhNMjtdCGI1pw2V-0_-Yby2REsMxbLaJXvitvlvirx4x-e0vOLWiNMDmon8aQ7wYLSLblIcZGO1zeNSO6Xs1kcWfj0YzVd-VZtlDBmv-SlkFlz5ZvG2plhZn6cL_A0zvbYmvPWummRj59Gqwc3htnLOnGW7trUxp4Iq8a35kn3fbJtX3KToFgQ0c04JGTLOs1Jc1eTmsJrSNFjfaLVA2-ioIO99uV7k4jN6aSZA7KNFRe_Fo7S2nbp-Ziu4xjScRyQs2T-eia7WZ9WlHzBayj1cvoKHiPj6dYomcAVXCq7v690fMkbP638twLvu0AAUxz2ur8kWMgVgVHE8FqGWjesnchODNQmMWrlnfWZsbifGx6M065UIZAbImgltPcOd6BjPcom9DW5NqclqaGEhLBB9NpgidhJXPYIsHbBCn0Jq5goKbYsoMMmN2hhVVq0KG0ZBISM8OEbqxu21w8Cu5jwvj4m2r6gHlgUg4B8nqF4jjfw6oMEW4SmLUq3nqSzajK2HAtXIXh00hvq771UKoAkQIVGk5Y9S4bIbnJ5BgsUywptzJD5RnistgsyOz4aqGL2dNjdMn7B-qHAtJOQ_26jhGIHnelPoBlpHzxzZrCXDJwGU7ky6MQTGS6dMHVKJU7TpfJPSpuDJ0sCeIIEy0E-kllBV_crwLlqdiYCpGCZ0TS6PL-Yx7psrAzkSTEA1Vawz7y3c8eFKImZBPAJROvpiM4FjzII7bPOk6dRBphN3eQEa7njrLy0]--></g></svg>