<svg xmlns="http://www.w3.org/2000/svg" xmlns:xlink="http://www.w3.org/1999/xlink" contentStyleType="text/css" height="834px" preserveAspectRatio="none" style="width:789px;height:834px;background:#FFFFFF;" version="1.1" viewBox="0 0 789 834" width="789px" zoomAndPan="magnify"><title>Initial index &#8212; MapAI (two-phase extractor)</title><defs/><g><text fill="#000000" font-family="sans-serif" font-size="14" font-weight="bold" lengthAdjust="spacing" textLength="287.4785" x="247.239" y="29.5332">Initial index &#8212; MapAI (two-phase extractor)</text><rect fill="none" height="109.4063" style="stroke:#000000;stroke-width:1.5;" width="500.6812" x="216.041" y="306.5859"/><rect fill="none" height="125.7578" style="stroke:#000000;stroke-width:1.5;" width="500.6812" x="216.041" y="534.0469"/><line style="stroke:#181818;stroke-width:0.5;stroke-dasharray:5.0,5.0;" x1="39" x2="39" y1="124.8281" y2="737.5078"/><line style="stroke:#181818;stroke-width:0.5;stroke-dasharray:5.0,5.0;" x1="173.0649" x2="173.0649" y1="124.8281" y2="737.5078"/><line style="stroke:#181818;stroke-width:0.5;stroke-dasharray:5.0,5.0;" x1="280.041" x2="280.041" y1="124.8281" y2="737.5078"/><line style="stroke:#181818;stroke-width:0.5;stroke-dasharray:5.0,5.0;" x1="522.7056" x2="522.7056" y1="124.8281" y2="737.5078"/><line style="stroke:#181818;stroke-width:0.5;stroke-dasharray:5.0,5.0;" x1="659.3706" x2="659.3706" y1="124.8281" y2="737.5078"/><line style="stroke:#181818;stroke-width:0.5;stroke-dasharray:5.0,5.0;" x1="746.7222" x2="746.7222" y1="124.8281" y2="737.5078"/><text fill="#000000" font-family="sans-serif" font-size="14" lengthAdjust="spacing" textLength="63.8135" x="5" y="121.752">Developer</text><ellipse cx="39.9067" cy="55.7188" fill="#E2E2F0" rx="8" ry="8" style="stroke:#181818;stroke-width:0.5;"/><path d="M39.9067,63.7188 L39.9067,90.7188 M26.9067,71.7188 L52.9067,71.7188 M39.9067,90.7188 L26.9067,105.7188 M39.9067,90.7188 L52.9067,105.7188 " fill="none" style="stroke:#181818;stroke-width:0.5;"/><text fill="#000000" font-family="sans-serif" font-size="14" lengthAdjust="spacing" textLength="63.8135" x="5" y="751.041">Developer</text><ellipse cx="39.9067" cy="762.6172" fill="#E2E2F0" rx="8" ry="8" style="stroke:#181818;stroke-width:0.5;"/><path d="M39.9067,770.6172 L39.9067,797.6172 M26.9067,778.6172 L52.9067,778.6172 M39.9067,797.6172 L26.9067,812.6172 M39.9067,797.6172 L52.9067,812.6172 " fill="none" style="stroke:#181818;stroke-width:0.5;"/><rect fill="#E2E2F0" height="49.2188" rx="2.5" ry="2.5" style="stroke:#181818;stroke-width:0.5;" width="79.3379" x="134.0649" y="74.6094"/><text fill="#000000" font-family="sans-serif" font-size="14" lengthAdjust="spacing" textLength="21.7861" x="162.8408" y="96.1426">CLI</text><text fill="#000000" font-family="sans-serif" font-size="14" lengthAdjust="spacing" textLength="65.3379" x="141.0649" y="113.752">(mapai-cli)</text><rect fill="#E2E2F0" height="49.2188" rx="2.5" ry="2.5" style="stroke:#181818;stroke-width:0.5;" width="79.3379" x="134.0649" y="736.5078"/><text fill="#000000" font-family="sans-serif" font-size="14" lengthAdjust="spacing" textLength="21.7861" x="162.8408" y="758.041">CLI</text><text fill="#000000" font-family="sans-serif" font-size="14" lengthAdjust="spacing" textLength="65.3379" x="141.0649" y="775.6504">(mapai-cli)</text><rect fill="#E2E2F0" height="49.2188" rx="2.5" ry="2.5" style="stroke:#181818;stroke-width:0.5;" width="108.1582" x="226.041" y="74.6094"/><text fill="#000000" font-family="sans-serif" font-size="14" lengthAdjust="spacing" textLength="43.5928" x="258.3237" y="96.1426">Engine</text><text fill="#000000" font-family="sans-serif" font-size="14" lengthAdjust="spacing" textLength="94.1582" x="233.041" y="113.752">(mapai-engine)</text><rect fill="#E2E2F0" height="49.2188" rx="2.5" ry="2.5" style="stroke:#181818;stroke-width:0.5;" width="108.1582" x="226.041" y="736.5078"/><text fill="#000000" font-family="sans-serif" font-size="14" lengthAdjust="spacing" textLength="43.5928" x="258.3237" y="758.041">Engine</text><text fill="#000000" font-family="sans-serif" font-size="14" lengthAdjust="spacing" textLength="94.1582" x="233.041" y="775.6504">(mapai-engine)</text><rect fill="#E2E2F0" height="49.2188" rx="2.5" ry="2.5" style="stroke:#181818;stroke-width:0.5;" width="160.665" x="442.7056" y="74.6094"/><text fill="#000000" font-family="sans-serif" font-size="14" lengthAdjust="spacing" textLength="56.0137" x="495.0313" y="96.1426">Extractor</text><text fill="#000000" font-family="sans-serif" font-size="14" lengthAdjust="spacing" textLength="146.665" x="449.7056" y="113.752">(mapai-extract + lang-*)</text><rect fill="#E2E2F0" height="49.2188" rx="2.5" ry="2.5" style="stroke:#181818;stroke-width:0.5;" width="160.665" x="442.7056" y="736.5078"/><text fill="#000000" font-family="sans-serif" font-size="14" lengthAdjust="spacing" textLength="56.0137" x="495.0313" y="758.041">Extractor</text><text fill="#000000" font-family="sans-serif" font-size="14" lengthAdjust="spacing" textLength="146.665" x="449.7056" y="775.6504">(mapai-extract + lang-*)</text><rect fill="#E2E2F0" height="49.2188" rx="2.5" ry="2.5" style="stroke:#181818;stroke-width:0.5;" width="93.3516" x="613.3706" y="74.6094"/><text fill="#000000" font-family="sans-serif" font-size="14" lengthAdjust="spacing" textLength="70.041" x="625.0259" y="96.1426">Core graph</text><text fill="#000000" font-family="sans-serif" font-size="14" lengthAdjust="spacing" textLength="79.3516" x="620.3706" y="113.752">(mapai-core)</text><rect fill="#E2E2F0" height="49.2188" rx="2.5" ry="2.5" style="stroke:#181818;stroke-width:0.5;" width="93.3516" x="613.3706" y="736.5078"/><text fill="#000000" font-family="sans-serif" font-size="14" lengthAdjust="spacing" textLength="70.041" x="625.0259" y="758.041">Core graph</text><text fill="#000000" font-family="sans-serif" font-size="14" lengthAdjust="spacing" textLength="79.3516" x="620.3706" y="775.6504">(mapai-core)</text><text fill="#000000" font-family="sans-serif" font-size="14" lengthAdjust="spacing" textLength="40.4688" x="724.105" y="104.1426">Cache</text><text fill="#000000" font-family="sans-serif" font-size="14" lengthAdjust="spacing" textLength="55.2344" x="716.7222" y="121.752">(.mapai/)</text><path d="M729.3394,53.6094 C729.3394,43.6094 747.3394,43.6094 747.3394,43.6094 C747.3394,43.6094 765.3394,43.6094 765.3394,53.6094 L765.3394,79.6094 C765.3394,89.6094 747.3394,89.6094 747.3394,89.6094 C747.3394,89.6094 729.3394,89.6094 729.3394,79.6094 L729.3394,53.6094 " fill="#E2E2F0" style="stroke:#181818;stroke-width:1.5;"/><path d="M729.3394,53.6094 C729.3394,63.6094 747.3394,63.6094 747.3394,63.6094 C747.3394,63.6094 765.3394,63.6094 765.3394,53.6094 " fill="none" style="stroke:#181818;stroke-width:1.5;"/><text fill="#000000" font-family="sans-serif" font-size="14" lengthAdjust="spacing" textLength="40.4688" x="724.105" y="751.041">Cache</text><text fill="#000000" font-family="sans-serif" font-size="14" lengthAdjust="spacing" textLength="55.2344" x="716.7222" y="768.6504">(.mapai/)</text><path d="M729.3394,781.7266 C729.3394,771.7266 747.3394,771.7266 747.3394,771.7266 C747.3394,771.7266 765.3394,771.7266 765.3394,781.7266 L765.3394,807.7266 C765.3394,817.7266 747.3394,817.7266 747.3394,817.7266 C747.3394,817.7266 729.3394,817.7266 729.3394,807.7266 L729.3394,781.7266 " fill="#E2E2F0" style="stroke:#181818;stroke-width:1.5;"/><path d="M729.3394,781.7266 C729.3394,791.7266 747.3394,791.7266 747.3394,791.7266 C747.3394,791.7266 765.3394,791.7266 765.3394,781.7266 " fill="none" style="stroke:#181818;stroke-width:1.5;"/><polygon fill="#181818" points="161.7339,153.1797,171.7339,157.1797,161.7339,161.1797,165.7339,157.1797" style="stroke:#181818;stroke-width:1.0;"/><line style="stroke:#181818;stroke-width:1.0;" x1="39.9067" x2="167.7339" y1="157.1797" y2="157.1797"/><text fill="#000000" font-family="sans-serif" font-size="13" lengthAdjust="spacing" textLength="109.8271" x="46.9067" y="152.3232">mapai (run in repo)</text><polygon fill="#181818" points="268.1201,183.5313,278.1201,187.5313,268.1201,191.5313,272.1201,187.5313" style="stroke:#181818;stroke-width:1.0;"/><line style="stroke:#181818;stroke-width:1.0;" x1="173.7339" x2="274.1201" y1="187.5313" y2="187.5313"/><text fill="#000000" font-family="sans-serif" font-size="13" lengthAdjust="spacing" textLength="82.3862" x="180.7339" y="182.6748">build full index</text><line style="stroke:#181818;stroke-width:1.0;" x1="280.1201" x2="322.1201" y1="234.2344" y2="234.2344"/><line style="stroke:#181818;stroke-width:1.0;" x1="322.1201" x2="322.1201" y1="234.2344" y2="247.2344"/><line style="stroke:#181818;stroke-width:1.0;" x1="281.1201" x2="322.1201" y1="247.2344" y2="247.2344"/><polygon fill="#181818" points="291.1201,243.2344,281.1201,247.2344,291.1201,251.2344,287.1201,247.2344" style="stroke:#181818;stroke-width:1.0;"/><text fill="#000000" font-family="sans-serif" font-size="13" lengthAdjust="spacing" textLength="137.998" x="287.1201" y="213.0264">walk (respect .gitignore)</text><text fill="#000000" font-family="sans-serif" font-size="13" lengthAdjust="spacing" textLength="179.5688" x="287.1201" y="229.3779">+ detect language from registry</text><rect fill="#EEEEEE" height="3" style="stroke:#EEEEEE;stroke-width:1.0;" width="782.9565" x="0" y="276.4102"/><line style="stroke:#000000;stroke-width:1.0;" x1="0" x2="782.9565" y1="276.4102" y2="276.4102"/><line style="stroke:#000000;stroke-width:1.0;" x1="0" x2="782.9565" y1="279.4102" y2="279.4102"/><rect fill="#EEEEEE" height="24.3516" style="stroke:#000000;stroke-width:2.0;" width="230.4297" x="276.2634" y="265.2344"/><text fill="#000000" font-family="sans-serif" font-size="13" font-weight="bold" lengthAdjust="spacing" textLength="212.8179" x="282.2634" y="282.7295">Phase 1 &#8212; per file, parallel (rayon)</text><path d="M216.041,306.5859 L288.4756,306.5859 L288.4756,314.9375 L278.4756,324.9375 L216.041,324.9375 L216.041,306.5859 " fill="#EEEEEE" style="stroke:#000000;stroke-width:1.5;"/><rect fill="none" height="109.4063" style="stroke:#000000;stroke-width:1.5;" width="500.6812" x="216.041" y="306.5859"/><text fill="#000000" font-family="sans-serif" font-size="13" font-weight="bold" lengthAdjust="spacing" textLength="27.4346" x="231.041" y="321.0811">loop</text><text fill="#000000" font-family="sans-serif" font-size="11" font-weight="bold" lengthAdjust="spacing" textLength="43.3931" x="303.4756" y="320.0049">[per file]</text><polygon fill="#181818" points="511.0381,343.2891,521.0381,347.2891,511.0381,351.2891,515.0381,347.2891" style="stroke:#181818;stroke-width:1.0;"/><line style="stroke:#181818;stroke-width:1.0;" x1="280.1201" x2="517.0381" y1="347.2891" y2="347.2891"/><text fill="#000000" font-family="sans-serif" font-size="13" lengthAdjust="spacing" textLength="199.3926" x="287.1201" y="342.4326">extract(file, tree)  [tree-sitter parse]</text><polygon fill="#181818" points="291.1201,373.6406,281.1201,377.6406,291.1201,381.6406,287.1201,377.6406" style="stroke:#181818;stroke-width:1.0;"/><line style="stroke:#181818;stroke-width:1.0;stroke-dasharray:2.0,2.0;" x1="285.1201" x2="522.0381" y1="377.6406" y2="377.6406"/><text fill="#000000" font-family="sans-serif" font-size="13" lengthAdjust="spacing" textLength="129.6699" x="297.1201" y="372.7842">symbols + raw imports</text><polygon fill="#181818" points="648.0464,403.9922,658.0464,407.9922,648.0464,411.9922,652.0464,407.9922" style="stroke:#181818;stroke-width:1.0;"/><line style="stroke:#181818;stroke-width:1.0;" x1="280.1201" x2="654.0464" y1="407.9922" y2="407.9922"/><text fill="#000000" font-family="sans-serif" font-size="13" lengthAdjust="spacing" textLength="269.896" x="287.1201" y="403.1357">add File / Symbol nodes + Defines/Calls edges</text><line style="stroke:#181818;stroke-width:1.0;" x1="280.1201" x2="322.1201" y1="461.6953" y2="461.6953"/><line style="stroke:#181818;stroke-width:1.0;" x1="322.1201" x2="322.1201" y1="461.6953" y2="474.6953"/><line style="stroke:#181818;stroke-width:1.0;" x1="281.1201" x2="322.1201" y1="474.6953" y2="474.6953"/><polygon fill="#181818" points="291.1201,470.6953,281.1201,474.6953,291.1201,478.6953,287.1201,474.6953" style="stroke:#181818;stroke-width:1.0;"/><text fill="#000000" font-family="sans-serif" font-size="13" lengthAdjust="spacing" textLength="137.3062" x="287.1201" y="440.4873">build ResolutionContext</text><text fill="#000000" font-family="sans-serif" font-size="13" lengthAdjust="spacing" textLength="214.9507" x="287.1201" y="456.8389">(read-only path -&gt; FileId over all files)</text><rect fill="#EEEEEE" height="3" style="stroke:#EEEEEE;stroke-width:1.0;" width="782.9565" x="0" y="503.8711"/><line style="stroke:#000000;stroke-width:1.0;" x1="0" x2="782.9565" y1="503.8711" y2="503.8711"/><line style="stroke:#000000;stroke-width:1.0;" x1="0" x2="782.9565" y1="506.8711" y2="506.8711"/><rect fill="#EEEEEE" height="24.3516" style="stroke:#000000;stroke-width:2.0;" width="130.0098" x="326.4734" y="492.6953"/><text fill="#000000" font-family="sans-serif" font-size="13" font-weight="bold" lengthAdjust="spacing" textLength="112.3979" x="332.4734" y="510.1904">Phase 2 &#8212; per file</text><path d="M216.041,534.0469 L288.4756,534.0469 L288.4756,542.3984 L278.4756,552.3984 L216.041,552.3984 L216.041,534.0469 " fill="#EEEEEE" style="stroke:#000000;stroke-width:1.5;"/><rect fill="none" height="125.7578" style="stroke:#000000;stroke-width:1.5;" width="500.6812" x="216.041" y="534.0469"/><text fill="#000000" font-family="sans-serif" font-size="13" font-weight="bold" lengthAdjust="spacing" textLength="27.4346" x="231.041" y="548.542">loop</text><text fill="#000000" font-family="sans-serif" font-size="11" font-weight="bold" lengthAdjust="spacing" textLength="43.3931" x="303.4756" y="547.4658">[per file]</text><polygon fill="#181818" points="511.0381,570.75,521.0381,574.75,511.0381,578.75,515.0381,574.75" style="stroke:#181818;stroke-width:1.0;"/><line style="stroke:#181818;stroke-width:1.0;" x1="280.1201" x2="517.0381" y1="574.75" y2="574.75"/><text fill="#000000" font-family="sans-serif" font-size="13" lengthAdjust="spacing" textLength="218.918" x="287.1201" y="569.8936">resolve(raw_imports, ctx, lang_config)</text><polygon fill="#181818" points="291.1201,601.1016,281.1201,605.1016,291.1201,609.1016,287.1201,605.1016" style="stroke:#181818;stroke-width:1.0;"/><line style="stroke:#181818;stroke-width:1.0;stroke-dasharray:2.0,2.0;" x1="285.1201" x2="522.0381" y1="605.1016" y2="605.1016"/><text fill="#000000" font-family="sans-serif" font-size="13" lengthAdjust="spacing" textLength="168.8477" x="297.1201" y="600.2451">resolved targets | Unresolved</text><polygon fill="#181818" points="648.0464,647.8047,658.0464,651.8047,648.0464,655.8047,652.0464,651.8047" style="stroke:#181818;stroke-width:1.0;"/><line style="stroke:#181818;stroke-width:1.0;" x1="280.1201" x2="654.0464" y1="651.8047" y2="651.8047"/><text fill="#000000" font-family="sans-serif" font-size="13" lengthAdjust="spacing" textLength="107.6753" x="287.1201" y="630.5967">add Imports edges</text><text fill="#000000" font-family="sans-serif" font-size="13" lengthAdjust="spacing" textLength="152.0962" x="287.1201" y="646.9482">(unresolved -&gt; Diagnostic)</text><polygon fill="#181818" points="735.3394,685.1563,745.3394,689.1563,735.3394,693.1563,739.3394,689.1563" style="stroke:#181818;stroke-width:1.0;"/><line style="stroke:#181818;stroke-width:1.0;" x1="280.1201" x2="741.3394" y1="689.1563" y2="689.1563"/><text fill="#000000" font-family="sans-serif" font-size="13" lengthAdjust="spacing" textLength="253.6333" x="287.1201" y="684.2998">write graph (versioned, content-hash keyed)</text><polygon fill="#181818" points="50.9067,715.5078,40.9067,719.5078,50.9067,723.5078,46.9067,719.5078" style="stroke:#181818;stroke-width:1.0;"/><line style="stroke:#181818;stroke-width:1.0;stroke-dasharray:2.0,2.0;" x1="44.9067" x2="172.7339" y1="719.5078" y2="719.5078"/><text fill="#000000" font-family="sans-serif" font-size="13" lengthAdjust="spacing" textLength="87.4263" x="56.9067" y="714.6514">overview ready</text><!--SRC=[ZLH1Rjim4Bpp5TjSQZLHtERGGm0N29m4CDe2HOkUcY9OYskP24KAvCgoW1xwYFuX_-XJ-f8k9SMnWnJeYHGvmvsTMVj57R2i42nslc685J4wL2_XgbgIrgJ1ED2-Y5CCnTem5Tm4chu-o_U_JoiDVtx-Wj_tR-4zTR2oleqmkPO5BZB5XYt1mXasQEL1JTiU_X7hYmLCkFLvlSP8G5iEMB0FcLBz2fUq8Ujh2e0HD6rKZO5DOMfq34Vp3uiRDwcmHfCNrcH72IMRGzILAusZ7P3wpm4xx9_07qGyCeOJE1QRN9c_6hbRVgB61u8oOBr-52L7eohPAOsCozJeqHoBTP9qskEc8oOTAYLjGlukzG7dqD_393Gk9H6ezfbADm8On0jcsHYhOTNOqLmrtknZMhHtyWp5MYA3qrAoA5rIT-EEnTWKPDzTWoN1AlXAQfKcSkYKcitWKv_FcpwsbCRAM3e1QH-j9IiFo_ou36OpPRslTn05iATboo9aD7ColC21A0FubjOy6cOXogkHlYUg4FBz9c9NBRsD4aJ05anL-y3ne4QoMO2eDLnB0PZ2bvu3pcjAn4jQ2JHEvo9SCjGbHR5Bg-Sy6tpzJD7RXertS-zOD4biWL3dtjbEnF8waLArXGQ_IQCgGQJsOhRdtTc1T__ZL4Y5DoJUjhTZhoTGyFQa3-gsy6vbokmvdqQc1iPG4aVu0L_Tm-6__5eC9GPFfCTcnqZ0IuCoBr6cFNlgLp-sQSI2_1yCFm2OY0zHB2CjafDjZdEnOGrtr94UHrYuQTRFUzSsXbf8ldRgBm00]--></g></svg>